<mxfile host="app.diagrams.net" agent="Mozilla/5.0 (Windows NT 10.0; Win64; x64) AppleWebKit/537.36 (KHTML, like Gecko) Chrome/126.0.0.0 Safari/537.36" version="24.7.6">
  <diagram name="Page-1" id="uJbB1_migbOvA8Bnsaw_">
    <mxGraphModel dx="1985" dy="1030" grid="1" gridSize="10" guides="1" tooltips="1" connect="1" arrows="1" fold="1" page="1" pageScale="1" pageWidth="1654" pageHeight="1169" math="0" shadow="0">
      <root>
        <mxCell id="0" />
        <mxCell id="1" parent="0" />
        <mxCell id="mgFgYEvAXB3xenWmPVLk-1" value="Region" style="points=[[0,0],[0.25,0],[0.5,0],[0.75,0],[1,0],[1,0.25],[1,0.5],[1,0.75],[1,1],[0.75,1],[0.5,1],[0.25,1],[0,1],[0,0.75],[0,0.5],[0,0.25]];outlineConnect=0;gradientColor=none;html=1;whiteSpace=wrap;fontSize=12;fontStyle=0;container=1;pointerEvents=0;collapsible=0;recursiveResize=0;shape=mxgraph.aws4.group;grIcon=mxgraph.aws4.group_region;strokeColor=#00A4A6;fillColor=none;verticalAlign=top;align=left;spacingLeft=30;fontColor=#147EBA;dashed=1;" vertex="1" parent="1">
          <mxGeometry x="507" y="240" width="920" height="510" as="geometry" />
        </mxCell>
        <mxCell id="mgFgYEvAXB3xenWmPVLk-2" value="VPC" style="points=[[0,0],[0.25,0],[0.5,0],[0.75,0],[1,0],[1,0.25],[1,0.5],[1,0.75],[1,1],[0.75,1],[0.5,1],[0.25,1],[0,1],[0,0.75],[0,0.5],[0,0.25]];outlineConnect=0;gradientColor=none;html=1;whiteSpace=wrap;fontSize=12;fontStyle=0;container=1;pointerEvents=0;collapsible=0;recursiveResize=0;shape=mxgraph.aws4.group;grIcon=mxgraph.aws4.group_vpc2;strokeColor=#8C4FFF;fillColor=none;verticalAlign=top;align=left;spacingLeft=30;fontColor=#AAB7B8;dashed=0;" vertex="1" parent="mgFgYEvAXB3xenWmPVLk-1">
          <mxGeometry x="25" y="50" width="870" height="430" as="geometry" />
        </mxCell>
        <mxCell id="mgFgYEvAXB3xenWmPVLk-4" value="Empower - Instance" style="outlineConnect=0;dashed=0;verticalLabelPosition=bottom;verticalAlign=top;align=center;html=1;shape=mxgraph.aws3.ec2;fillColor=#F58534;gradientColor=none;" vertex="1" parent="mgFgYEvAXB3xenWmPVLk-2">
          <mxGeometry x="130" y="150" width="76.5" height="93" as="geometry" />
        </mxCell>
        <mxCell id="mgFgYEvAXB3xenWmPVLk-5" value="Empower DB" style="outlineConnect=0;dashed=0;verticalLabelPosition=bottom;verticalAlign=top;align=center;html=1;shape=mxgraph.aws3.rds;fillColor=#2E73B8;gradientColor=none;" vertex="1" parent="mgFgYEvAXB3xenWmPVLk-2">
          <mxGeometry x="680" y="139.25" width="72" height="81" as="geometry" />
        </mxCell>
        <mxCell id="mgFgYEvAXB3xenWmPVLk-6" value="HTTP Web Access SG" style="rounded=1;arcSize=10;dashed=1;strokeColor=#ff0000;fillColor=none;gradientColor=none;dashPattern=8 4;strokeWidth=2;verticalAlign=bottom;" vertex="1" parent="mgFgYEvAXB3xenWmPVLk-2">
          <mxGeometry x="68.5" y="110" width="199.5" height="199.5" as="geometry" />
        </mxCell>
        <mxCell id="mgFgYEvAXB3xenWmPVLk-7" value="DB Security Group" style="rounded=1;arcSize=10;dashed=1;strokeColor=#ff0000;fillColor=none;gradientColor=none;dashPattern=8 4;strokeWidth=2;verticalAlign=bottom;" vertex="1" parent="mgFgYEvAXB3xenWmPVLk-2">
          <mxGeometry x="610" y="80" width="199.5" height="199.5" as="geometry" />
        </mxCell>
        <mxCell id="mgFgYEvAXB3xenWmPVLk-9" style="edgeStyle=orthogonalEdgeStyle;rounded=0;orthogonalLoop=1;jettySize=auto;html=1;exitX=1;exitY=0.5;exitDx=0;exitDy=0;entryX=0;entryY=0.5;entryDx=0;entryDy=0;" edge="1" parent="mgFgYEvAXB3xenWmPVLk-2" source="mgFgYEvAXB3xenWmPVLk-23" target="mgFgYEvAXB3xenWmPVLk-7">
          <mxGeometry relative="1" as="geometry" />
        </mxCell>
        <mxCell id="mgFgYEvAXB3xenWmPVLk-8" value="DB-Access - SG" style="rounded=1;arcSize=10;dashed=1;strokeColor=#ff0000;fillColor=none;gradientColor=none;dashPattern=8 4;strokeWidth=2;verticalAlign=bottom;" vertex="1" parent="mgFgYEvAXB3xenWmPVLk-2">
          <mxGeometry x="100" y="80" width="199.5" height="199.5" as="geometry" />
        </mxCell>
        <mxCell id="mgFgYEvAXB3xenWmPVLk-19" value="&lt;font style=&quot;font-size: 22px;&quot;&gt;2&lt;/font&gt;" style="ellipse;whiteSpace=wrap;html=1;aspect=fixed;" vertex="1" parent="mgFgYEvAXB3xenWmPVLk-2">
          <mxGeometry x="138" y="100" width="50" height="50" as="geometry" />
        </mxCell>
        <mxCell id="mgFgYEvAXB3xenWmPVLk-20" value="&lt;font style=&quot;font-size: 22px;&quot;&gt;3&lt;/font&gt;" style="ellipse;whiteSpace=wrap;html=1;aspect=fixed;" vertex="1" parent="mgFgYEvAXB3xenWmPVLk-2">
          <mxGeometry x="691" y="89.25" width="50" height="50" as="geometry" />
        </mxCell>
        <mxCell id="mgFgYEvAXB3xenWmPVLk-22" value="" style="edgeStyle=orthogonalEdgeStyle;rounded=0;orthogonalLoop=1;jettySize=auto;html=1;exitX=1;exitY=0.5;exitDx=0;exitDy=0;entryX=0;entryY=0.5;entryDx=0;entryDy=0;" edge="1" parent="mgFgYEvAXB3xenWmPVLk-2" source="mgFgYEvAXB3xenWmPVLk-8" target="mgFgYEvAXB3xenWmPVLk-23">
          <mxGeometry relative="1" as="geometry">
            <mxPoint x="182" y="270" as="sourcePoint" />
            <mxPoint x="492" y="270" as="targetPoint" />
          </mxGeometry>
        </mxCell>
        <mxCell id="mgFgYEvAXB3xenWmPVLk-23" value="&lt;font style=&quot;font-size: 16px;&quot;&gt;JDBC Connectivity&lt;/font&gt;" style="text;html=1;align=center;verticalAlign=middle;whiteSpace=wrap;rounded=0;" vertex="1" parent="mgFgYEvAXB3xenWmPVLk-2">
          <mxGeometry x="398" y="165" width="60" height="30" as="geometry" />
        </mxCell>
        <mxCell id="mgFgYEvAXB3xenWmPVLk-21" style="edgeStyle=orthogonalEdgeStyle;rounded=0;orthogonalLoop=1;jettySize=auto;html=1;exitX=0.5;exitY=1;exitDx=0;exitDy=0;" edge="1" parent="mgFgYEvAXB3xenWmPVLk-1" source="mgFgYEvAXB3xenWmPVLk-2" target="mgFgYEvAXB3xenWmPVLk-2">
          <mxGeometry relative="1" as="geometry" />
        </mxCell>
        <mxCell id="mgFgYEvAXB3xenWmPVLk-11" style="edgeStyle=orthogonalEdgeStyle;rounded=0;orthogonalLoop=1;jettySize=auto;html=1;exitX=1;exitY=0.5;exitDx=0;exitDy=0;exitPerimeter=0;entryX=0;entryY=0.5;entryDx=0;entryDy=0;" edge="1" parent="1" source="mgFgYEvAXB3xenWmPVLk-12" target="mgFgYEvAXB3xenWmPVLk-6">
          <mxGeometry relative="1" as="geometry" />
        </mxCell>
        <mxCell id="mgFgYEvAXB3xenWmPVLk-10" value="" style="verticalLabelPosition=bottom;html=1;verticalAlign=top;align=center;strokeColor=none;fillColor=#00BEF2;shape=mxgraph.azure.computer;pointerEvents=1;" vertex="1" parent="1">
          <mxGeometry x="180" y="460.75" width="85" height="78" as="geometry" />
        </mxCell>
        <mxCell id="mgFgYEvAXB3xenWmPVLk-13" value="" style="edgeStyle=orthogonalEdgeStyle;rounded=0;orthogonalLoop=1;jettySize=auto;html=1;exitX=1;exitY=0.5;exitDx=0;exitDy=0;exitPerimeter=0;entryX=0;entryY=0.5;entryDx=0;entryDy=0;" edge="1" parent="1" source="mgFgYEvAXB3xenWmPVLk-10" target="mgFgYEvAXB3xenWmPVLk-12">
          <mxGeometry relative="1" as="geometry">
            <mxPoint x="315" y="500" as="sourcePoint" />
            <mxPoint x="601" y="500" as="targetPoint" />
          </mxGeometry>
        </mxCell>
        <mxCell id="mgFgYEvAXB3xenWmPVLk-12" value="&lt;font style=&quot;font-size: 17px;&quot;&gt;Access Empower URL&lt;/font&gt;" style="text;html=1;align=center;verticalAlign=middle;whiteSpace=wrap;rounded=0;" vertex="1" parent="1">
          <mxGeometry x="320" y="484.75" width="150" height="30" as="geometry" />
        </mxCell>
        <mxCell id="mgFgYEvAXB3xenWmPVLk-18" value="&lt;font style=&quot;font-size: 22px;&quot;&gt;1&lt;/font&gt;" style="ellipse;whiteSpace=wrap;html=1;aspect=fixed;" vertex="1" parent="1">
          <mxGeometry x="370" y="420" width="50" height="50" as="geometry" />
        </mxCell>
        <mxCell id="mgFgYEvAXB3xenWmPVLk-25" value="&lt;font style=&quot;font-size: 17px;&quot;&gt;List&lt;/font&gt;" style="swimlane;fontStyle=0;childLayout=stackLayout;horizontal=1;startSize=30;horizontalStack=0;resizeParent=1;resizeParentMax=0;resizeLast=0;collapsible=1;marginBottom=0;whiteSpace=wrap;html=1;fillColor=#f8cecc;strokeColor=#b85450;" vertex="1" parent="1">
          <mxGeometry x="630" y="840" width="690" height="120" as="geometry" />
        </mxCell>
        <mxCell id="mgFgYEvAXB3xenWmPVLk-26" value="&lt;font style=&quot;font-size: 17px;&quot;&gt;1. External System connecting to Empower Instance via HTTP&amp;nbsp;&lt;/font&gt;" style="text;strokeColor=#6c8ebf;fillColor=#dae8fc;align=left;verticalAlign=middle;spacingLeft=4;spacingRight=4;overflow=hidden;points=[[0,0.5],[1,0.5]];portConstraint=eastwest;rotatable=0;whiteSpace=wrap;html=1;" vertex="1" parent="mgFgYEvAXB3xenWmPVLk-25">
          <mxGeometry y="30" width="690" height="30" as="geometry" />
        </mxCell>
        <mxCell id="mgFgYEvAXB3xenWmPVLk-27" value="&lt;font style=&quot;font-size: 18px;&quot;&gt;2. EC2 Instance Running Empower &amp;amp; EWS Application&lt;/font&gt;" style="text;strokeColor=#666666;fillColor=#f5f5f5;align=left;verticalAlign=middle;spacingLeft=4;spacingRight=4;overflow=hidden;points=[[0,0.5],[1,0.5]];portConstraint=eastwest;rotatable=0;whiteSpace=wrap;html=1;fontColor=#333333;" vertex="1" parent="mgFgYEvAXB3xenWmPVLk-25">
          <mxGeometry y="60" width="690" height="30" as="geometry" />
        </mxCell>
        <mxCell id="mgFgYEvAXB3xenWmPVLk-28" value="&lt;font style=&quot;font-size: 17px;&quot;&gt;3. RDS Database holding Empower Documents&lt;/font&gt;" style="text;strokeColor=#6c8ebf;fillColor=#dae8fc;align=left;verticalAlign=middle;spacingLeft=4;spacingRight=4;overflow=hidden;points=[[0,0.5],[1,0.5]];portConstraint=eastwest;rotatable=0;whiteSpace=wrap;html=1;" vertex="1" parent="mgFgYEvAXB3xenWmPVLk-25">
          <mxGeometry y="90" width="690" height="30" as="geometry" />
        </mxCell>
        <mxCell id="mgFgYEvAXB3xenWmPVLk-29" value="&lt;div&gt;&lt;font size=&quot;1&quot; style=&quot;&quot;&gt;&lt;b style=&quot;font-size: 22px;&quot;&gt;Architectural Overview&amp;nbsp;&lt;/b&gt;&lt;/font&gt;&lt;/div&gt;&lt;font size=&quot;1&quot; style=&quot;&quot;&gt;&lt;b style=&quot;font-size: 22px;&quot;&gt;OpenText&amp;nbsp; Empower &amp;amp; EWS Setup in AWS as EC2 Instance with RDS&lt;/b&gt;&lt;/font&gt;" style="text;html=1;align=center;verticalAlign=middle;whiteSpace=wrap;rounded=0;" vertex="1" parent="1">
          <mxGeometry x="280" y="90" width="1180" height="70" as="geometry" />
        </mxCell>
      </root>
    </mxGraphModel>
  </diagram>
</mxfile>

